<?xml version="1.0" encoding="UTF-8"?>
<svg version="1.1" xmlns="http://www.w3.org/2000/svg" width="1000" height="462">
<path d="M0 0 C42.9 0 85.8 0 130 0 C130 3.63 130 7.26 130 11 C128.31132812 11.10957031 126.62265625 11.21914063 124.8828125 11.33203125 C122.63016619 11.4915937 120.37756425 11.65178334 118.125 11.8125 C116.46210938 11.91788086 116.46210938 11.91788086 114.765625 12.02539062 C102.20328558 12.66277789 102.20328558 12.66277789 91.9375 19 C89.90228598 21.87807366 89.90228598 21.87807366 89 25 C118.205 25.495 118.205 25.495 148 26 C148 29.63 148 33.26 148 37 C146.22753906 37.10957031 144.45507812 37.21914063 142.62890625 37.33203125 C140.27339545 37.49156784 137.9179289 37.65175875 135.5625 37.8125 C134.39783203 37.88275391 133.23316406 37.95300781 132.03320312 38.02539062 C124.08155489 38.58536585 116.78856443 39.36447692 110.125 44 C99.59028227 58.87254268 103.88008035 85.83910721 103.9375 103 C103.94252563 105.62499915 103.94708665 108.24999922 103.95117188 110.875 C103.96209188 117.25002065 103.97874552 123.62500586 104 130 C104.66386719 129.40251953 105.32773438 128.80503906 106.01171875 128.18945312 C159 80.5 159 80.5 161.4921875 78.2578125 C163.18592894 76.73291756 164.87861169 75.20684598 166.5703125 73.6796875 C170.35007413 70.2698108 174.13544953 66.87608042 178 63.5625 C186.47148019 56.13287523 193.65232149 48.32647737 200 39 C196.7 38.34 193.4 37.68 190 37 C190 33.37 190 29.74 190 26 C194.29 25.67 198.58 25.34 203 25 C198.83996777 18.06661294 195.30484308 15.69718286 187.70703125 13.58984375 C184.159791 12.81692416 180.65025549 12.45144103 177.03125 12.2109375 C175 12 175 12 173 11 C173 7.37 173 3.74 173 0 C253.19 0 333.38 0 416 0 C416 3.63 416 7.26 416 11 C415.23445801 11.04487549 414.46891602 11.08975098 413.68017578 11.13598633 C410.16092198 11.34926639 406.64308448 11.58075896 403.125 11.8125 C401.31902344 11.91788086 401.31902344 11.91788086 399.4765625 12.02539062 C386.9438063 12.82073701 386.9438063 12.82073701 376 18.375 C373.6603303 21.20324498 373.6603303 21.20324498 372 26 C392.13 26 412.26 26 433 26 C433.33 28.31 433.66 30.62 434 33 C434.52207031 32.29875 435.04414063 31.5975 435.58203125 30.875 C447.52928021 15.47539364 462.03010069 8.57862699 481 6 C498.15092161 3.98386912 516.4722335 10.94557895 530 21 C537.26581026 26.94787938 543.54940102 34.7074433 545.4296875 44.16015625 C546.21388429 46.68999658 547.54132481 47.52402949 549.625 49.125 C558.5609891 56.66524215 563.08282922 65.36713007 564.3125 76.94140625 C564.91891567 91.4764318 558.18950072 102.52876452 549.09375 113.24609375 C536.69155466 126.30518503 520.51111918 135.2008163 505 144 C507.78943572 149.11287159 510.88950402 153.70139243 514.4375 158.3125 C524.29818559 171.29888869 533.73715667 184.58472214 543.12109375 197.91796875 C547.38190139 203.96822873 551.69074307 209.98420105 556 216 C569.89423047 199.36995866 578.82075086 176.28423633 582 155 C573.51017403 153.44189642 573.51017403 153.44189642 565 152 C565 148.37 565 144.74 565 141 C569.29 140.67 573.58 140.34 578 140 C572.60200418 134.28447501 567.62662038 130.86131798 560 128.8125 C558.824375 128.48894531 557.64875 128.16539062 556.4375 127.83203125 C553.29939438 127.07246705 550.19124911 126.48160619 547 126 C546.97311849 124.35425434 546.95365877 122.70838587 546.9375 121.0625 C546.92589844 120.14597656 546.91429687 119.22945313 546.90234375 118.28515625 C547 116 547 116 548 115 C550.86091818 114.90477582 553.69763621 114.87446674 556.55883789 114.88647461 C557.45631241 114.88632858 558.35378693 114.88618256 559.27845764 114.8860321 C562.25988134 114.88673158 565.2412434 114.89452559 568.22265625 114.90234375 C570.28388942 114.90420781 572.34512304 114.90563177 574.40635681 114.90663147 C579.8430401 114.91045763 585.27969686 114.92028874 590.71636963 114.93133545 C596.25947714 114.94154747 601.80258892 114.94612864 607.34570312 114.95117188 C618.23048043 114.96191092 629.11523802 114.97898851 640 115 C640 118.63 640 122.26 640 126 C639.05640625 126.3403125 638.1128125 126.680625 637.140625 127.03125 C635.84345088 127.52004025 634.54659306 128.00967046 633.25 128.5 C632.32767578 128.82871094 632.32767578 128.82871094 631.38671875 129.1640625 C624.29636868 131.88561101 619.74768806 135.5015413 613 140 C627.85 140.33 642.7 140.66 658 141 C658 144.63 658 148.26 658 152 C656.80117187 152.41958984 656.80117187 152.41958984 655.578125 152.84765625 C630.09588511 162.14927198 618.42240761 177.9697997 607.37231445 201.52929688 C604.24339431 208.32840712 601.35681612 215.22473272 598.46069336 222.12524414 C594.79646376 230.72316867 590.48836799 238.94175325 586.00219727 247.13500977 C584.96160688 249.07144581 583.97399464 251.02934697 583 253 C592.99741038 264.77644665 604.18197963 274.45101178 620 277 C630.66775298 277.86304102 639.94493477 276.68366629 648.375 269.6875 C650.91796824 267.32361403 652.60394155 265.06615791 654.3125 262.0625 C655.4375 260.3125 655.4375 260.3125 657 259 C660.73467779 258.40584671 664.25215725 258.5864902 668 259 C667.64251325 267.0434518 663.37782455 273.43326317 659 280 C666.89523075 279.02760945 673.8916601 277.73378866 679.30859375 271.4921875 C686.58427358 259.60591203 684.27881912 240.15361367 684.22705078 226.79272461 C684.22648522 224.72127793 684.22680604 222.64983085 684.22793579 220.5783844 C684.22850467 215.00928477 684.21682649 209.44027303 684.20278788 203.87119365 C684.19020217 198.03096012 684.18910388 192.19072412 684.18673706 186.35047913 C684.18054517 175.31541064 684.16416566 164.28038225 684.14403808 153.24533135 C684.12160738 140.67202597 684.11066769 128.09871857 684.10064721 115.52539814 C684.07979718 89.68357586 684.04425867 63.84179188 684 38 C671.13 37.505 671.13 37.505 658 37 C658 33.37 658 29.74 658 26 C665.92 25.67 673.84 25.34 682 25 C677.71421553 17.21224702 677.71421553 17.21224702 671 14 C668.15550933 13.43550973 665.32485807 13.12775914 662.4375 12.875 C661.65262207 12.79717285 660.86774414 12.7193457 660.05908203 12.63916016 C657.70714028 12.41081165 655.3544089 12.20118854 653 12 C652.30632324 11.94070312 651.61264648 11.88140625 650.89794922 11.8203125 C647.2667519 11.51703577 643.6352234 11.25362024 640 11 C640 7.37 640 3.74 640 0 C686.2 0 732.4 0 780 0 C780 3.63 780 7.26 780 11 C779.08299316 11.04487549 778.16598633 11.08975098 777.22119141 11.13598633 C773.77262167 11.31069936 770.32501096 11.49657615 766.87744141 11.68969727 C765.39394988 11.77057698 763.91021824 11.8471835 762.42626953 11.91918945 C748.57693142 12.01563671 748.57693142 12.01563671 736.36572266 17.37792969 C734.03772687 20.03635606 732.58058765 22.83882469 731 26 C753.11 26 775.22 26 798 26 C798 29.63 798 33.26 798 37 C795.64488281 37.07347656 795.64488281 37.07347656 793.2421875 37.1484375 C772.93054192 37.01000765 772.93054192 37.01000765 754 43 C743.67018069 55.05145587 746.85745342 76.60258916 746.88647461 91.4777832 C746.88675716 93.51908364 746.88659741 95.56038419 746.8860321 97.60168457 C746.8857468 103.10694654 746.89160029 108.61218645 746.89860606 114.11744332 C746.90488412 119.88429923 746.90544691 125.65115573 746.90663147 131.41801453 C746.9097317 142.32216277 746.91792738 153.2263009 746.92798096 164.13044471 C746.93918282 176.55130656 746.94466279 188.97216892 746.94967639 201.39303458 C746.96011115 226.9286953 746.97768514 252.46434708 747 278 C751.34081929 278.64365307 755.50714 279.12805994 759.89672852 279.14526367 C761.01221573 279.15164352 762.12770294 279.15802338 763.2769928 279.16459656 C764.46562424 279.16570938 765.65425568 279.1668222 766.87890625 279.16796875 C768.12316879 279.17129715 769.36743134 279.17462555 770.6493988 279.17805481 C773.27936434 279.18310782 775.90933626 279.18546364 778.53930664 279.18530273 C782.52432853 279.18518184 786.50916411 279.20562508 790.49414062 279.22460938 C793.0598949 279.22754579 795.62565047 279.22952892 798.19140625 279.23046875 C799.36586807 279.23765427 800.5403299 279.24483978 801.75038147 279.25224304 C820.80575351 279.20070579 836.79192883 276.12044301 851.1484375 263.04296875 C865.19984634 248.51947701 871.8781915 227.19735707 877.30859375 208.203125 C878 206 878 206 879 205 C882.3 205 885.6 205 889 205 C889 220.51 889 236.02 889 252 C891.31 245.07 893.62 238.14 896 231 C899.63 231 903.26 231 907 231 C907.14428556 249.70702421 906.73868343 268.37015663 906.07287598 287.06256104 C905.94893264 290.57024038 905.83019972 294.07809644 905.7109375 297.5859375 C905.47885739 304.39079915 905.24133219 311.19546031 905 318 C903.11209968 318.00219984 903.11209968 318.00219984 901.18605995 318.00444412 C871.28857546 318.04017007 841.39120634 318.09644576 811.4938148 318.17792095 C807.81146938 318.18793804 804.12912352 318.19778223 800.44677734 318.20751953 C799.34717515 318.21043159 799.34717515 318.21043159 798.22535877 318.21340248 C786.36604288 318.24439732 774.50674634 318.2613961 762.64739759 318.27319422 C750.47254064 318.28561884 738.29778494 318.31314976 726.12299192 318.35461307 C718.61451487 318.37971106 711.1062058 318.39311999 703.59768622 318.39142957 C697.83363428 318.39139621 692.06980504 318.41241214 686.30583191 318.44116783 C683.94603813 318.44967293 681.58620854 318.45141265 679.2264061 318.44580269 C675.99778464 318.4391508 672.77017604 318.45711324 669.54165649 318.48101807 C668.61361163 318.47325765 667.68556676 318.46549723 666.72939932 318.45750165 C660.96418873 318.53277061 656.53844652 319.64161815 651.28076208 322.02117515 C637.13818629 328.09068359 618.95706071 325.8005533 604.8515625 320.5234375 C586.43864971 313.09760884 572.87753748 300.75430864 560 286 C559.34 285.34 558.68 284.68 558 284 C557.58862793 284.43231934 557.17725586 284.86463867 556.75341797 285.31005859 C535.38957197 307.60972042 510.74377975 324.54116149 478.75 325.3125 C455.33235311 324.90627551 435.91020272 316.15476411 419 300 C418.37351562 299.44828125 417.74703125 298.8965625 417.1015625 298.328125 C410.80257627 292.57068057 406.95740226 285.07110117 402.69921875 277.76953125 C399.60224216 272.6079036 395.88487292 268.0998505 391.98828125 263.515625 C390.28266562 261.35763587 389.16860321 259.45905131 388 257 C387.98786972 257.91484665 387.98786972 257.91484665 387.97549438 258.84817505 C386.5372655 365.3524186 386.5372655 365.3524186 358.57421875 394.53125 C336.46331899 415.75771377 306.39368576 422.84182287 276.51635742 422.53881836 C256.76271488 422.05595961 235.47766356 417.43794715 220.8359375 403.1328125 C216.57505041 398.1829309 212.92886296 393.14635556 212.375 386.5 C212.25125 385.345 212.1275 384.19 212 383 C210.26838037 381.63359102 210.26838037 381.63359102 208 381 C201.08427713 376.5141257 196.10791168 368.88961227 194 361 C192.95357442 352.3201752 193.82246138 345.17588686 199 338 C203.19399178 333.40476071 207.53394671 330.41114563 213.83203125 329.6640625 C221.48855974 329.56371481 227.09636053 330.24448971 232.75 335.68359375 C237.09392627 340.53918442 239.28357411 344.08988729 239.125 350.75 C239.10695313 351.73484375 239.08890625 352.7196875 239.0703125 353.734375 C239.04710937 354.48203125 239.02390625 355.2296875 239 356 C240.5159375 356.309375 240.5159375 356.309375 242.0625 356.625 C247.67100701 358.22905576 251.53984512 361.95578316 254.875 366.625 C256.62948567 370.32891418 257.13866488 373.5392014 257.125 377.625 C257.12757813 378.40101563 257.13015625 379.17703125 257.1328125 379.9765625 C257 382 257 382 256 384 C276.52390652 382.45867896 293.48787091 378.80414694 308 363 C318.9967179 349.07885184 321.1662568 335.94704024 324 318 C280.77 318 237.54 318 193 318 C193 314.37 193 310.74 193 307 C193.83136475 306.95512451 194.66272949 306.91024902 195.51928711 306.86401367 C198.64544086 306.68931109 201.77068652 306.5034311 204.89575195 306.31030273 C206.89680743 306.18994749 208.89860543 306.08214737 210.90039062 305.97460938 C223.16261511 305.44283221 223.16261511 305.44283221 233.5 299.625 C235.32281584 296.7562411 235.32281584 296.7562411 236 292 C216.2 292 196.4 292 176 292 C176 288.37 176 284.74 176 281 C177.37671875 280.95101563 178.7534375 280.90203125 180.171875 280.8515625 C199.00568673 280.84672442 199.00568673 280.84672442 216 274 C217.52765546 270.94468909 217.54757853 269.4245153 217 266 C214.77538109 262.88201287 212.05108425 260.30481989 209.30834961 257.64306641 C208.49054016 256.82598709 207.67273071 256.00890778 206.83013916 255.16706848 C204.11802796 252.4642481 201.38538435 249.78320392 198.65234375 247.1015625 C196.76199862 245.22495312 194.8729211 243.34715129 192.98548889 241.46762085 C188.5147814 237.02072904 184.02944206 232.58891531 179.53827244 228.16270006 C172.96980953 221.68795801 166.4231602 215.19122183 159.87686253 208.69408226 C158.90607902 207.73064922 157.93528916 206.76722258 156.9644928 205.80380249 C156.48992899 205.33278842 156.01536518 204.86177436 155.52642065 204.37648714 C152.27393623 201.14948724 149.0145063 197.92961077 145.75267029 194.71206665 C144.88151077 193.85085709 144.01035126 192.98964752 143.11279297 192.1023407 C141.49904278 190.50704338 139.88333276 188.91372473 138.26515198 187.32292175 C134.13570538 183.2350433 130.26476572 179.07363542 126.61962223 174.54475975 C124.74606292 172.75780045 123.56043473 172.268121 121 172 C119.00033192 173.24803786 119.00033192 173.24803786 117.1796875 175.18359375 C116.47972656 175.86357422 115.77976562 176.54355469 115.05859375 177.24414062 C114.33800781 177.96794922 113.61742187 178.69175781 112.875 179.4375 C111.43897562 180.85700375 109.99906437 182.27258972 108.5546875 183.68359375 C107.92030762 184.31837646 107.28592773 184.95315918 106.63232422 185.60717773 C105 187 105 187 103 187 C103.1079424 197.37117081 103.2206612 207.74227796 103.33933926 218.11333179 C103.39430959 222.92994383 103.44768554 227.74656215 103.49731445 232.56323242 C103.5453432 237.21873969 103.59769502 241.87418076 103.65294075 246.52960777 C103.67319136 248.29842143 103.6919308 250.06725312 103.70907402 251.83609962 C103.73350615 254.32935665 103.76350029 256.82249319 103.79467773 259.31567383 C103.8004332 260.03353561 103.80618866 260.7513974 103.81211853 261.49101257 C103.89524785 267.407306 104.45911925 273.0503117 105 279 C112.59 279.66 120.18 280.32 128 281 C128 284.63 128 288.26 128 292 C121.07 292.33 114.14 292.66 107 293 C111.67217808 300.00826712 114.82485626 303.31934841 123 305 C126.97016828 305.50396757 130.94748658 305.82283883 134.9375 306.125 C136.53561523 306.25455078 136.53561523 306.25455078 138.16601562 306.38671875 C140.77684192 306.59745809 143.38836 306.7995966 146 307 C146 310.63 146 314.26 146 318 C102.44 318 58.88 318 14 318 C14 314.37 14 310.74 14 307 C15.77246094 306.89042969 17.54492188 306.78085937 19.37109375 306.66796875 C21.72660455 306.50843216 24.0820711 306.34824125 26.4375 306.1875 C27.60216797 306.11724609 28.76683594 306.04699219 29.96679688 305.97460938 C41.27939279 305.28346139 41.27939279 305.28346139 51.15625 300.24609375 C51.5996875 299.64925781 52.043125 299.05242187 52.5 298.4375 C53.19609375 297.53837891 53.19609375 297.53837891 53.90625 296.62109375 C55.06268009 294.98258159 55.06268009 294.98258159 56 293 C26.795 292.505 26.795 292.505 -3 292 C-3 288.37 -3 284.74 -3 281 C-1.75605469 280.95101563 -0.51210938 280.90203125 0.76953125 280.8515625 C19.11869139 280.84355665 19.11869139 280.84355665 35 273 C43.86854732 262.30479667 41.27667509 241.81933675 41.22705078 228.83618164 C41.22648548 226.74532578 41.22680555 224.65446952 41.22793579 222.56361389 C41.22850565 216.93241486 41.21681127 211.30130239 41.20278788 205.67012334 C41.19021882 199.76848502 41.18910517 193.86684434 41.18673706 187.9651947 C41.18054035 176.80964557 41.16415417 165.65413601 41.14403808 154.49860424 C41.12162257 141.78991847 41.11067148 129.08123074 41.10064721 116.3725301 C41.07978622 90.24833153 41.04464566 64.12416799 41 38 C40.24885422 38.00253784 39.49770844 38.00507568 38.72380066 38.00769043 C37.24246391 38.01065125 37.24246391 38.01065125 35.73120117 38.01367188 C34.75318039 38.01620972 33.77515961 38.01874756 32.76750183 38.0213623 C27.81287944 37.98311765 22.93032545 37.46403063 18 37 C18 33.37 18 29.74 18 26 C28.395 25.505 28.395 25.505 39 25 C34.72986936 17.17980881 34.72986936 17.17980881 28 14 C24.53059215 13.42309742 21.06901554 13.12564091 17.5625 12.875 C15.7303516 12.72801554 13.89831682 12.57960696 12.06640625 12.4296875 C10.77114014 12.32672363 10.77114014 12.32672363 9.44970703 12.22167969 C6.27562892 11.93444998 3.14804835 11.4936417 0 11 C0 7.37 0 3.74 0 0 Z M239 25 C239 25.33 239 25.66 239 26 C266.72 26 294.44 26 323 26 C320.82928517 19.38172181 320.82928517 19.38172181 316 15 C308.42434483 11.5356112 300.20138358 11.29789361 292 11 C290.59041016 10.938125 290.59041016 10.938125 289.15234375 10.875 C270.68955976 10.43994176 255.00867955 16.44990979 239 25 Z M460.91796875 28.078125 C454.47406039 35.83794727 451.63672683 44.88024748 452 55 C452.66 55.66 453.32 56.32 454 57 C454.53367187 56.35933594 455.06734375 55.71867187 455.6171875 55.05859375 C466.25434447 42.70992191 479.4543549 34.38381759 496 33 C502.00081766 32.80464893 507.99840541 32.88115654 514 33 C507.36765244 24.88620024 500.9111657 19.11338425 490 18 C478.83121971 17.45071572 469.05268886 19.95866703 460.91796875 28.078125 Z M244 61 C242.90765004 61.91808532 241.81519597 62.83604676 240.72265625 63.75390625 C233.65049086 69.72938212 226.78066655 75.89561079 220.0078125 82.20703125 C217.40845887 84.62867229 214.77524993 87.0090178 212.125 89.375 C207.86245175 93.19324354 203.676747 97.08857489 199.5 101 C194.55389396 105.63191171 189.57194306 110.21429965 184.51953125 114.73046875 C180.95437672 117.94187152 177.4363255 121.20332989 173.91479492 124.46240234 C168.63966675 129.34128781 163.32546334 134.17613341 158 139 C162.03046049 143.83681473 166.25033556 148.3868753 170.72045898 152.81811523 C171.36358032 153.45977631 172.00670166 154.10143738 172.66931152 154.76254272 C174.0546059 156.14405606 175.44105344 157.52441388 176.82855034 158.90371513 C179.03028806 161.09258827 181.22879846 163.28465819 183.42652893 165.47755432 C188.88425657 170.92197289 194.34741728 176.36092914 199.8104248 181.80004883 C204.43368795 186.40351059 209.05485033 191.00906217 213.67329597 195.61735725 C215.82867833 197.76630496 217.98707399 199.91219355 220.14561462 202.05796814 C221.48060819 203.3893255 222.81545949 204.72082554 224.15014648 206.05249023 C224.74205276 206.63923019 225.33395905 207.22597015 225.94380188 207.83049011 C229.59664679 211.48287901 233.04450626 215.26544066 236.41127968 219.18332672 C238.85599574 221.97881582 241.45960936 224.60291305 244.08984375 227.22265625 C244.6380629 227.77183212 245.18628204 228.321008 245.75111389 228.88682556 C246.8985232 230.03490838 248.04716808 231.18175763 249.19702148 232.32739258 C250.933936 234.058947 252.66543889 235.79578359 254.39648438 237.53320312 C259.58553097 242.72499213 264.76700373 247.86100239 270.38574219 252.59399414 C272.1231645 254.10727531 273.71659392 255.71405227 275.3125 257.375 C279.8691022 261.99387922 284.88533277 266.01869653 290 270 C290.7425 270.58265625 291.485 271.1653125 292.25 271.765625 C300.42687119 277.71790623 309.26572205 279.8795441 319.2434082 280.54760742 C320.50764114 280.6335466 321.77187408 280.71948578 323.07441711 280.80802917 C324.52258064 280.90305473 324.52258064 280.90305473 326 281 C326.0228302 251.48739696 326.04051877 221.97479434 326.05106533 192.46218432 C326.05231598 188.97511505 326.05361031 185.4880458 326.05493164 182.00097656 C326.05519395 181.30678642 326.05545626 180.61259629 326.05572652 179.89737009 C326.06007357 168.66853329 326.06795582 157.43970164 326.0771528 146.2108679 C326.08651616 134.68243314 326.09198648 123.15400199 326.09408849 111.6255635 C326.09539138 105.15302074 326.0984506 98.68048962 326.10573006 92.20795059 C326.11252934 86.11283378 326.11460899 80.01773339 326.11310768 73.92261314 C326.11338225 71.6885831 326.11536414 69.4545525 326.11920547 67.22052574 C326.1242038 64.16303927 326.12297573 61.10561421 326.12025452 58.04812622 C326.12316736 57.17066368 326.1260802 56.29320114 326.12908131 55.38914883 C326.11507738 49.54054721 325.67929891 43.80825862 325 38 C294.42661102 33.99037522 267.69398679 40.82389771 244 61 Z M392.25 44.6875 C385.61982415 53.33647939 386.85112888 67.47343196 386.88647461 77.78369141 C386.88632858 78.91656586 386.88618256 80.04944031 386.8860321 81.21664429 C386.88672386 84.92830377 386.89448152 88.63991188 386.90234375 92.3515625 C386.90421055 94.93801852 386.90563322 97.5244749 386.90663147 100.1109314 C386.91004801 106.20215433 386.9179142 112.29335634 386.92798096 118.38457143 C386.93920024 125.32541843 386.94466713 132.26626635 386.94967639 139.20712018 C386.96009858 153.47142317 386.97766159 167.73571094 387 182 C387.60884033 181.23268555 388.21768066 180.46537109 388.8449707 179.67480469 C392.96920921 174.55583369 397.51121695 169.79851861 402 165 C402.73476563 164.20980469 403.46953125 163.41960937 404.2265625 162.60546875 C417.16624738 149.15691985 433.44866263 138.21171678 449 128 C447.56498237 124.03558261 445.65581885 120.72685833 443.375 117.1875 C431.45380577 98.18844069 422.11370879 76.93187437 426 54 C427.47687206 48.11830866 429.13071415 42.36543587 432 37 C410.61211658 35.80415291 410.61211658 35.80415291 392.25 44.6875 Z M216 44 C214.83984375 45.06927734 214.83984375 45.06927734 213.65625 46.16015625 C212.60421301 47.12765456 211.552127 48.09509957 210.5 49.0625 C209.74203125 49.76149414 209.74203125 49.76149414 208.96875 50.47460938 C206.04318876 53.16246876 203.08569421 55.80523931 200.0859375 58.41015625 C196.00462441 61.96788626 192.05764744 65.65448506 188.125 69.375 C182.96403572 74.23619178 177.76953779 79.04746458 172.48046875 83.76953125 C169.50446644 86.44559002 166.56305342 89.157419 163.625 91.875 C163.077229 92.381521 162.52945801 92.88804199 161.96508789 93.40991211 C160.85790099 94.4337466 159.75072326 95.45759101 158.64355469 96.48144531 C151.16119856 103.39473336 143.64302817 110.26409891 136 117 C140.11619836 121.91935902 144.40410362 126.52647956 149 131 C151.92643237 129.67143806 154.0700763 128.20435823 156.390625 125.98828125 C157.01348389 125.39893799 157.63634277 124.80959473 158.27807617 124.20239258 C158.92881104 123.57872803 159.5795459 122.95506348 160.25 122.3125 C161.60462334 121.03035621 162.96008243 119.74909479 164.31640625 118.46875 C164.95980957 117.8603125 165.60321289 117.251875 166.26611328 116.625 C168.77903665 114.26988623 171.37052164 112.01556416 173.98046875 109.76953125 C177.67569686 106.5317395 181.26658607 103.1776107 184.875 99.84375 C187.16051828 97.74395562 189.49103964 95.70443836 191.83984375 93.67578125 C210.90722807 78.05179289 210.90722807 78.05179289 222 57 C222.14286836 52.20914775 221.80814576 49.86736865 218.44140625 46.25390625 C217.63574219 45.51011719 216.83007812 44.76632813 216 44 Z M475.8359375 57.3203125 C470.30649247 65.39094929 468.80769275 75.4254115 470 85 C471.78687487 93.59037705 474.70490643 101.36036636 479 109 C486.05469154 105.45561391 491.98349831 101.08797072 498 96 C498.78761719 95.35933594 499.57523438 94.71867187 500.38671875 94.05859375 C509.91580997 86.0502743 518.29258804 74.6434936 520 62 C520.4433696 54.38959472 520.4433696 54.38959472 519 47 C503.60232376 39.30116188 486.48396507 44.87721515 475.8359375 57.3203125 Z M537 79 C535.68499843 80.4373273 534.39915064 81.90133822 533.125 83.375 C519.39228609 98.6790119 503.19351203 108.75758996 485 118 C487.45967191 122.48169949 489.99237222 126.47405286 493.25 130.4375 C494.30960938 131.73494141 494.30960938 131.73494141 495.390625 133.05859375 C496.18726563 134.01958984 496.18726563 134.01958984 497 135 C513.2552362 125.11088292 530.83207528 112.57850367 536.51171875 93.4140625 C537.47385763 88.65724789 537.76251701 83.83973961 538 79 C537.67 79 537.34 79 537 79 Z M432.4375 155.1875 C421.54643011 166.57480569 410.72567564 182.69729521 411 199 C411.639375 198.360625 412.27875 197.72125 412.9375 197.0625 C413.62779297 196.37607422 413.62779297 196.37607422 414.33203125 195.67578125 C415.54799978 194.45411732 416.7521803 193.22068694 417.94921875 191.98046875 C431.55299543 178.0347659 447.88783273 166.20788032 464.16186523 155.56494141 C465.07174194 154.79029541 465.07174194 154.79029541 466 154 C466 149.79673379 463.80426228 147.20405841 461.5625 143.8125 C461.14162109 143.15830078 460.72074219 142.50410156 460.28710938 141.83007812 C459.22377289 140.19849463 458.11554276 138.5963438 457 137 C449.49159442 137 437.65758399 150.32360997 432.4375 155.1875 Z M104 145 C102.70454552 146.07029129 102.70454552 146.07029129 102.88647461 148.59204102 C102.89171143 149.71795654 102.89694824 150.84387207 102.90234375 152.00390625 C102.90556641 153.21884766 102.90878906 154.43378906 102.91210938 155.68554688 C102.92048828 156.96494141 102.92886719 158.24433594 102.9375 159.5625 C102.94201172 160.84576172 102.94652344 162.12902344 102.95117188 163.45117188 C102.96300455 166.63416022 102.97948932 169.81705762 103 173 C107.28456627 169.83388953 111.52259209 166.67625706 115.5 163.125 C116.1703125 162.52945313 116.840625 161.93390625 117.53125 161.3203125 C118.0159375 160.88460937 118.500625 160.44890625 119 160 C117.387672 155.96918 114.53765404 153.24055863 111.5 150.25 C111.00113281 149.74339844 110.50226563 149.23679688 109.98828125 148.71484375 C107.46938363 145.87194401 107.46938363 145.87194401 104 145 Z M466.375 167.5625 C465.74053955 168.02213135 465.1060791 168.4817627 464.45239258 168.95532227 C446.60761394 182.00407422 431.52462421 200.54814381 428 223 C427.11457135 234.10414613 427.66498919 248.43093626 435.0625 257.5 C436.89328406 259.31554995 436.89328406 259.31554995 439 261 C439.82886719 261.68449219 440.65773438 262.36898437 441.51171875 263.07421875 C456.13572698 274.3603649 470.92243886 277.44187925 489 276 C507.74297106 273.29205512 521.31930687 261.07883831 534 248 C528.8835062 239.8824956 523.63819301 231.85656299 518.3125 223.875 C517.91882233 223.28461945 517.52514465 222.69423889 517.11953735 222.08596802 C510.57198801 212.27498075 503.89199824 202.57247521 497 193 C496.46536133 192.25427734 495.93072266 191.50855469 495.37988281 190.74023438 C492.10242813 186.16889758 488.81083365 181.60825824 485.5 177.06103516 C484.52664466 175.72362211 483.5551755 174.38483352 482.5859375 173.04443359 C481.3347719 171.31630685 480.0753289 169.59461349 478.8125 167.875 C478.11769531 166.92367187 477.42289063 165.97234375 476.70703125 164.9921875 C476.14371094 164.33476562 475.58039063 163.67734375 475 163 C471.56932054 163 469.06813142 165.60681947 466.375 167.5625 Z M594 164 C593.57086304 164.97888184 593.57086304 164.97888184 593.13305664 165.97753906 C590.2523908 172.54515813 587.36206835 179.10845627 584.46630859 185.66943359 C583.16430645 188.62679511 581.87179682 191.5880707 580.58203125 194.55078125 C576.74618416 203.29500672 572.69468115 211.7535689 567.82958984 219.97875977 C565.26285563 224.25242701 565.26285563 224.25242701 564 229 C564.76270445 230.80782397 564.76270445 230.80782397 566.08984375 232.453125 C566.54423828 233.071875 566.99863281 233.690625 567.46679688 234.328125 C568.19479492 235.27945313 568.19479492 235.27945313 568.9375 236.25 C569.41896484 236.8996875 569.90042969 237.549375 570.39648438 238.21875 C571.58635642 239.82095394 572.79173028 241.41162434 574 243 C587.59772292 226.94670635 600.50952495 199.46649628 600.22265625 178.15625 C599.64513175 172.56338112 598.07160092 167.88944491 594 164 Z M540 258 C538.99646484 259.07314453 538.99646484 259.07314453 537.97265625 260.16796875 C521.69004235 277.21450837 503.20796434 290.1759422 480.21875 296.02734375 C479.1565625 296.34832031 478.094375 296.66929687 477 297 C476.67 297.66 476.34 298.32 476 299 C490.49573721 304.47254798 506.71123556 303.44435867 520.76171875 297.40625 C532.89007954 291.92113481 542.65893161 284.39965017 551 274 C549.62152612 270.16784261 547.84768058 267.07256489 545.5 263.75 C544.8915625 262.87859375 544.283125 262.0071875 543.65625 261.109375 C542.16964255 258.9067787 542.16964255 258.9067787 540 258 Z M304 292 C309.34170392 297.34170392 314.69809188 301.70511459 322 304 C322.99 304 323.98 304 325 304 C325.33 300.04 325.66 296.08 326 292 C318.74 292 311.48 292 304 292 Z M634.17382812 295.01171875 C630.58198607 296.64466761 626.86089856 297.25272931 623 298 C629.30297384 303.33213664 638.49258788 304.59128463 646.56640625 304.28125 C654.7710955 303.33303551 661.63413656 300.26830078 668 295 C668.66 294.01 669.32 293.02 670 292 C665.54189248 291.88265763 661.08418872 291.81236628 656.625 291.75 C655.37332031 291.71648437 654.12164063 291.68296875 652.83203125 291.6484375 C645.91380946 291.57599539 640.4517792 291.9908324 634.17382812 295.01171875 Z M679.5625 297.3125 C678.12424542 300.18525394 677.01529748 302.95410756 676 306 C681.77371479 306.36853499 686.83405711 305.76487084 692 303 C695.59687538 299.77891757 698.46360601 296.60918197 700 292 C688.11367908 290.21345266 688.11367908 290.21345266 679.5625 297.3125 Z M748 292 C752.06442894 299.11275064 753.91770807 301.56363803 761.375 304.1875 C769.31495961 305.96714612 777.03776034 306.17186577 785.14453125 306.203125 C786.30893234 306.20882507 787.47333344 306.21452515 788.67301941 306.22039795 C791.134787 306.22981673 793.59656703 306.23636947 796.05834961 306.24023438 C799.76244164 306.24986978 803.46596143 306.28089498 807.16992188 306.3125 C836.52796943 306.84803508 836.52796943 306.84803508 862.75 295.25 C863.4925 294.5075 864.235 293.765 865 293 C865 292.67 865 292.34 865 292 C826.39 292 787.78 292 748 292 Z M334 374 C333.21238281 374.50789063 332.42476563 375.01578125 331.61328125 375.5390625 C306.46854484 391.42934563 281.25252964 395.23342872 252 396 C252.62701977 400.30986001 253.64795323 402.16847877 257.1953125 404.8671875 C267.6644355 411.43871493 281.13094383 411.0859637 292.875 408.9375 C309.38776996 405.01890669 322.83735698 394.98445854 332.3515625 381.015625 C333.64039316 378.96360769 333.64039316 378.96360769 335 376 C334.505 375.01 334.505 375.01 334 374 Z " fill="#01543D" transform="translate(48,20)"/>
<path d="M0 0 C3.63 0 7.26 0 11 0 C11.14428556 18.70702421 10.73868343 37.37015663 10.07287598 56.06256104 C9.94893264 59.57024038 9.83019972 63.07809644 9.7109375 66.5859375 C9.47885739 73.39079915 9.24133219 80.19546031 9 87 C7.11209968 87.00219984 7.11209968 87.00219984 5.18605995 87.00444412 C-24.71142454 87.04017007 -54.60879366 87.09644576 -84.5061852 87.17792095 C-88.18853062 87.18793804 -91.87087648 87.19778223 -95.55322266 87.20751953 C-96.28629079 87.2094609 -97.01935892 87.21140228 -97.77464123 87.21340248 C-109.63395712 87.24439732 -121.49325366 87.2613961 -133.35260241 87.27319422 C-145.52745936 87.28561884 -157.70221506 87.31314976 -169.87700808 87.35461307 C-177.38548513 87.37971106 -184.8937942 87.39311999 -192.40231378 87.39142957 C-198.16636572 87.39139621 -203.93019496 87.41241214 -209.69416809 87.44116783 C-212.05396187 87.44967293 -214.41379146 87.45141265 -216.7735939 87.44580269 C-220.00221536 87.4391508 -223.22982396 87.45711324 -226.45834351 87.48101807 C-227.38638837 87.47325765 -228.31443324 87.46549723 -229.27060068 87.45750165 C-235.03581127 87.53277061 -239.46155348 88.64161815 -244.71923792 91.02117515 C-258.86181371 97.09068359 -277.04293929 94.8005533 -291.1484375 89.5234375 C-309.56135029 82.09760884 -323.12246252 69.75430864 -336 55 C-336.66 54.34 -337.32 53.68 -338 53 C-338.41137207 53.43231934 -338.82274414 53.86463867 -339.24658203 54.31005859 C-360.61042803 76.60972042 -385.25622025 93.54116149 -417.25 94.3125 C-440.66764689 93.90627551 -460.08979728 85.15476411 -477 69 C-477.62648438 68.44828125 -478.25296875 67.8965625 -478.8984375 67.328125 C-485.65793469 61.14976106 -490.86332688 52.56614283 -494 44 C-490.6474525 45.49598802 -488.1139134 47.4531776 -485.3125 49.8125 C-468.89657221 63.06967783 -450.98312093 66.24635797 -430.43164062 66.47851562 C-423.72207398 66.62842965 -417.96150846 67.36826728 -411.54858398 69.32543945 C-407.52556444 70.39025438 -403.64028667 70.45111934 -399.5 70.375 C-398.67395264 70.36339844 -397.84790527 70.35179687 -396.99682617 70.33984375 C-378.70601416 69.85108249 -362.85039611 60.56858918 -350 48 C-348.63382908 46.36014252 -347.2879728 44.70196405 -346 43 C-347.45044271 38.89041233 -349.51110752 35.56741255 -352 32 C-351.67 31.34 -351.34 30.68 -351 30 C-350.31035156 30.7734375 -349.62070312 31.546875 -348.91015625 32.34375 C-333.84280477 49.11164456 -315.08163275 64.68578779 -291.53271484 66.15380859 C-287.870202 66.30143131 -284.20717418 66.41194464 -280.54321289 66.51660156 C-273.94762342 66.77339337 -268.91945587 68.04652942 -263 71 C-253.3043029 73.42392428 -243.15713785 72.52507892 -234.44140625 67.53515625 C-231.38516781 65.53515382 -228.58580003 63.58580003 -226 61 C-222.7421875 60.8046875 -222.7421875 60.8046875 -218.875 60.875 C-216.95300781 60.90207031 -216.95300781 60.90207031 -214.9921875 60.9296875 C-214.00476563 60.95289063 -213.01734375 60.97609375 -212 61 C-212.76567866 62.58583248 -213.53777965 64.16856494 -214.3125 65.75 C-214.74175781 66.63171875 -215.17101562 67.5134375 -215.61328125 68.421875 C-216.90103146 70.81600215 -218.30915754 72.87776958 -220 75 C-208.08400229 73.26751309 -208.08400229 73.26751309 -199 66 C-198.69650635 65.15518066 -198.3930127 64.31036133 -198.08032227 63.43994141 C-196 61 -196 61 -193.90809631 60.5116272 C-191.05610477 60.30086169 -188.24270644 60.25482559 -185.3828125 60.265625 C-184.33350555 60.25609802 -183.28419861 60.24657104 -182.20309448 60.23675537 C-179.98227207 60.22458332 -177.76134598 60.22543858 -175.54052734 60.23828125 C-172.14366132 60.24993597 -168.7517889 60.19779713 -165.35546875 60.140625 C-163.19792017 60.13673908 -161.04036086 60.13661511 -158.8828125 60.140625 C-157.86808868 60.12018127 -156.85336487 60.09973755 -155.80789185 60.07867432 C-148.8728334 60.1925143 -148.8728334 60.1925143 -146.34100342 62.53479004 C-145.04248047 64.40917969 -145.04248047 64.40917969 -144.05905151 66.27313232 C-141.99478658 69.63908039 -138.63293387 70.8087207 -135 72 C-126.83849953 73.84490226 -118.80559139 74.30781009 -110.46484375 74.30078125 C-109.30610245 74.30506638 -108.14736115 74.3093515 -106.95350647 74.31376648 C-104.51564177 74.31947245 -102.07776005 74.32003784 -99.63989258 74.31567383 C-95.97121023 74.3125289 -92.30334783 74.33596983 -88.63476562 74.36132812 C-61.9131725 74.64349508 -61.9131725 74.64349508 -37 66 C-36.13761719 65.12730469 -35.27523438 64.25460937 -34.38671875 63.35546875 C-30.10555464 59.65700527 -24.98235973 60.46283653 -19.625 60.6875 C-18.60277344 60.71005859 -17.58054687 60.73261719 -16.52734375 60.75585938 C-14.01670419 60.81451918 -11.50912621 60.89654072 -9 61 C-9.02094727 59.96182129 -9.04189453 58.92364258 -9.06347656 57.85400391 C-9.13651958 53.95896495 -9.18203034 50.06398503 -9.21972656 46.16845703 C-9.23969699 44.49061869 -9.26688332 42.81284864 -9.30175781 41.13525391 C-9.49674717 31.50622049 -9.43685533 23.76083969 -5 15 C-4.47892606 13.59016652 -3.98284735 12.17077133 -3.515625 10.7421875 C-3.30292969 10.09765625 -3.09023438 9.453125 -2.87109375 8.7890625 C-2.66613281 8.15742188 -2.46117187 7.52578125 -2.25 6.875 C-2.02957031 6.2046875 -1.80914063 5.534375 -1.58203125 4.84375 C-1.05183259 3.23010191 -0.52547587 1.61519221 0 0 Z " fill="#DCDDDE" transform="translate(944,251)"/>
<path d="M0 0 C1.09920273 0.00222061 2.19840546 0.00444122 3.33091736 0.00672913 C4.57212845 0.00680466 5.81333954 0.00688019 7.09216309 0.00695801 C8.45682311 0.01206541 9.82148274 0.01728142 11.18614197 0.02259827 C12.57476755 0.02446251 13.96339379 0.02588638 15.35202026 0.02688599 C19.01319686 0.03071065 22.67433402 0.04054048 26.335495 0.05158997 C30.06890835 0.06180519 33.80232805 0.06638384 37.53575134 0.07142639 C44.86584748 0.08216281 52.19591108 0.0992386 59.52598572 0.12025452 C59.52598572 3.75025452 59.52598572 7.38025452 59.52598572 11.12025452 C58.72491394 11.16513 57.92384216 11.21000549 57.09849548 11.25624084 C53.42763317 11.46908671 49.75818641 11.70077244 46.08848572 11.93275452 C44.82842712 12.00300842 43.56836853 12.07326233 42.27012634 12.14564514 C29.94840385 12.83206738 29.94840385 12.83206738 19.58848572 18.80775452 C13.66388562 28.32302134 14.37713883 40.84287389 14.4158783 51.69422913 C14.41533598 53.99760947 14.41474901 56.3009898 14.41412354 58.60437012 C14.4155517 59.81229155 14.41697987 61.02021297 14.41845131 62.26473808 C14.42163726 68.06063661 14.40046382 73.85643428 14.38193071 79.65229714 C14.35397215 88.51773263 14.33357764 97.38295339 14.35093689 106.24842834 C14.36385297 112.89977062 14.34498587 119.55039421 14.30849266 126.20167732 C14.29994911 128.71747567 14.3018459 131.2333346 14.31499672 133.74911308 C14.38077492 147.3526719 13.81777656 159.25516598 8.90908813 172.03775024 C2.94263871 188.00949389 5.99895078 208.96633425 12.52598572 224.12025452 C13.37020845 227.57906434 13.65608003 230.79769319 13.67124939 234.35243225 C13.68067566 235.88986588 13.68067566 235.88986588 13.69029236 237.45835876 C13.69150085 238.5623703 13.69270935 239.66638184 13.69395447 240.80384827 C13.69814392 241.95958344 13.70233337 243.1153186 13.70664978 244.30607605 C13.71644319 248.05666996 13.71643883 251.80714992 13.71348572 255.55775452 C13.71307785 257.46281265 13.71307785 257.46281265 13.71266174 259.40635681 C13.6339672 338.87714341 13.6339672 338.87714341 -14.89979553 368.65150452 C-37.01069529 389.87796828 -67.08032852 396.96207738 -96.95765686 396.65907288 C-116.72266245 396.17593637 -137.97816219 391.5517942 -152.63807678 377.25697327 C-157.58380964 371.50098204 -161.1401746 365.79856721 -161.47401428 358.12025452 C-157.52736611 359.37785019 -153.80360813 360.84252455 -150.03651428 362.55775452 C-141.9166088 365.98998389 -133.37113605 367.64442082 -124.61463928 368.49525452 C-123.06002991 368.80462952 -123.06002991 368.80462952 -121.47401428 369.12025452 C-120.72432382 370.81520686 -119.98534844 372.51946269 -119.38417053 374.27259827 C-117.560193 377.97535093 -114.1532185 379.5608567 -110.47401428 381.12025452 C-94.26842041 385.89245394 -77.42300296 382.97055385 -62.73182678 375.13197327 C-52.90258829 369.06235957 -44.38745042 360.08514246 -39.16151428 349.74525452 C-37.06528817 345.70860288 -34.29060814 342.62482847 -31.16151428 339.37025452 C-22.78195482 330.5885212 -17.00827983 320.36938659 -12.47401428 309.12025452 C-12.17752991 308.38548889 -11.88104553 307.65072327 -11.57557678 306.89369202 C-3.82603488 285.79345415 -5.17509192 260.22422208 -5.17103577 238.12025452 C-5.16335215 235.60608148 -5.15480164 233.09191096 -5.14546204 230.57774353 C-5.12735231 225.21591248 -5.11495577 219.85411724 -5.10792351 214.49226379 C-5.09764909 206.73279011 -5.07552115 198.97338286 -5.05053759 191.2139442 C-5.01016952 178.60753305 -4.977611 166.00111549 -4.95082092 153.39466858 C-4.94922362 152.64391391 -4.94762632 151.89315923 -4.94598062 151.11965442 C-4.94438172 150.367918 -4.94278282 149.61618158 -4.94113547 148.84166527 C-4.91837383 138.14773914 -4.89373379 127.45381952 -4.86683655 116.75990295 C-4.8649404 116.00523255 -4.86304426 115.25056214 -4.86109065 114.47302294 C-4.82930796 101.887303 -4.79357166 89.30159608 -4.75579506 76.71589279 C-4.73280856 68.97330184 -4.71383592 61.23071967 -4.70012832 53.48810661 C-4.68946936 47.56873654 -4.67405679 41.64938518 -4.65693665 35.73003006 C-4.65078162 33.30444333 -4.64632203 30.87885162 -4.64367867 28.45325851 C-4.63986601 25.14414849 -4.63004886 21.83510802 -4.61877441 18.52601624 C-4.61916055 17.56601212 -4.61954668 16.606008 -4.61994451 15.61691284 C-4.54670325 0.2210018 -4.54670325 0.2210018 0 0 Z " fill="#DCDDDE" transform="translate(421.47401428222656,45.87974548339844)"/>
<path d="M0 0 C1.18580658 0.00444122 2.37161316 0.00888245 3.59335327 0.01345825 C4.24713455 0.0131662 4.90091583 0.01287415 5.57450867 0.01257324 C7.73896483 0.01396839 9.90307822 0.02953783 12.06747437 0.04519653 C13.56677055 0.04892602 15.06606916 0.05177329 16.56536865 0.05377197 C20.5142793 0.06141355 24.46304316 0.08106644 28.41189575 0.10317993 C32.44029759 0.12362713 36.46872311 0.13277127 40.49716187 0.14285278 C48.40347928 0.16431192 56.30967732 0.19845409 64.21591187 0.24050903 C64.21591187 3.87050903 64.21591187 7.50050903 64.21591187 11.24050903 C61.86079468 11.3139856 61.86079468 11.3139856 59.45809937 11.38894653 C39.14645379 11.25051668 39.14645379 11.25051668 20.21591187 17.24050903 C9.8890209 29.28854849 13.05505882 50.92581444 13.0105896 65.81008911 C13.00099317 67.86124358 12.9909821 69.91239615 12.98059082 71.96354675 C12.9537267 77.49564606 12.93261789 83.02775374 12.91258883 88.55988145 C12.89061421 94.35478096 12.86328205 100.14965522 12.83653259 105.9445343 C12.78676002 116.90178778 12.74176438 127.85905539 12.69851023 138.81633633 C12.64900534 151.29767461 12.59413665 163.77898753 12.53883064 176.26030123 C12.42524776 201.92034681 12.31835778 227.58041674 12.21591187 253.24050903 C10.75841894 252.7801443 9.30299197 252.31323508 7.84848022 251.84353638 C7.03777573 251.58422333 6.22707123 251.32491028 5.39179993 251.05773926 C2.82964426 250.09543284 1.4362551 249.03989096 -0.22158813 246.86550903 C-0.67404907 246.30089966 -1.12651001 245.73629028 -1.59268188 245.15457153 C-8.36771838 234.27008667 -5.92662031 218.40623503 -5.91348267 206.09109497 C-5.9148393 203.95307384 -5.91662071 201.81505293 -5.91879272 199.67703247 C-5.92333469 193.89640061 -5.92159113 188.11578669 -5.91841364 182.33515453 C-5.9158746 176.27660767 -5.91823175 170.2180623 -5.9197998 164.15951538 C-5.92161643 153.99152349 -5.91922789 143.82353888 -5.91445923 133.6555481 C-5.90901173 121.90446572 -5.91078485 110.15340068 -5.91628563 98.40231872 C-5.92082419 88.30185731 -5.92146384 78.20140113 -5.91884696 68.10093904 C-5.91728905 62.07299404 -5.91707729 56.0450572 -5.92038345 50.01711273 C-5.92327314 44.35358366 -5.92126624 38.69007695 -5.9154892 33.02655029 C-5.91416775 30.94928271 -5.91454527 28.87201323 -5.91675186 26.7947464 C-5.91948737 23.95793668 -5.91605289 21.12119849 -5.91107178 18.28439331 C-5.9133025 17.46405979 -5.91553322 16.64372627 -5.91783154 15.79853415 C-5.86580884 0.50672965 -5.86580884 0.50672965 0 0 Z " fill="#DCDDDE" transform="translate(781.7840881347656,45.759490966796875)"/>
<path d="M0 0 C1.9376801 0.0130719 3.87538349 0.02302855 5.81309509 0.03001404 C10.88863112 0.05661444 15.96274268 0.12526673 21.03771973 0.20294189 C26.22612238 0.27482511 31.41475747 0.30657894 36.60351562 0.34179688 C46.76624746 0.41664625 56.92792669 0.53596195 67.08984375 0.68359375 C67.98430079 4.7614727 68.17180493 8.5035738 68.08984375 12.68359375 C67.2898999 12.6678833 66.48995605 12.65217285 65.66577148 12.63598633 C35.07177121 12.11415991 11.0829534 16.25277985 -12.91015625 36.68359375 C-14.00250621 37.60167907 -15.09496028 38.51964051 -16.1875 39.4375 C-23.25966539 45.41297587 -30.1294897 51.57920454 -36.90234375 57.890625 C-39.50169738 60.31226604 -42.13490632 62.69261155 -44.78515625 65.05859375 C-49.0477045 68.87683729 -53.23340925 72.77216864 -57.41015625 76.68359375 C-62.35491986 81.3142483 -67.33523127 85.89570398 -72.38671875 90.41015625 C-74.85026594 92.62963685 -77.29088229 94.87147902 -79.72436523 97.1237793 C-80.83950079 98.15558249 -81.95617798 99.18572229 -83.07446289 100.21411133 C-85.68188608 102.61247609 -88.27179639 105.02340668 -90.8203125 107.484375 C-91.69558594 108.31324219 -92.57085937 109.14210938 -93.47265625 109.99609375 C-94.23707031 110.73472656 -95.00148437 111.47335938 -95.7890625 112.234375 C-97.91015625 113.68359375 -97.91015625 113.68359375 -100.015625 113.57421875 C-102.90972695 112.21369247 -104.76391573 110.00868764 -106.91015625 107.68359375 C-105.53662697 104.56523042 -103.99176652 102.56493947 -101.49609375 100.2578125 C-100.81675781 99.62552734 -100.13742188 98.99324219 -99.4375 98.34179688 C-98.72722656 97.69146484 -98.01695312 97.04113281 -97.28515625 96.37109375 C-96.25455078 95.41299805 -96.25455078 95.41299805 -95.203125 94.43554688 C-91.12117169 90.6561023 -86.96857637 86.96697652 -82.77197266 83.31567383 C-80.10965789 80.98187181 -77.51062657 78.5862022 -74.91015625 76.18359375 C-71.65930682 73.18009156 -68.38702314 70.22287362 -65.0390625 67.328125 C-46.5447431 52.10923888 -46.5447431 52.10923888 -35.91015625 31.68359375 C-35.93846697 26.85189808 -36.73662337 23.40904539 -39.91015625 19.68359375 C-39.91015625 18.69359375 -39.91015625 17.70359375 -39.91015625 16.68359375 C-37.8203125 14.66796875 -37.8203125 14.66796875 -34.97265625 12.43359375 C-34.05613281 11.7065625 -33.13960938 10.97953125 -32.1953125 10.23046875 C-31.66736084 9.83938431 -31.13940918 9.44829987 -30.59545898 9.04536438 C-28.84545985 7.70320293 -28.84545985 7.70320293 -27.32055664 5.92765808 C-19.6713005 -1.67737658 -10.02900597 -0.19912093 0 0 Z " fill="#DCDDDE" transform="translate(304.91015625,45.31640625)"/>
<path d="M0 0 C0.33 8.58 0.66 17.16 1 26 C5.14815468 22.10108493 5.14815468 22.10108493 9.28637695 18.19165039 C9.80675537 17.70688232 10.32713379 17.22211426 10.86328125 16.72265625 C11.39219971 16.22515869 11.92111816 15.72766113 12.46606445 15.21508789 C14 14 14 14 17 13 C27.31288461 23.28946108 37.62285752 33.58183208 47.92942905 43.87761688 C52.71566734 48.65871223 57.50283216 53.43887274 62.29223633 58.21679688 C66.91755804 62.8310372 71.54022144 67.44793046 76.16129875 72.06642151 C77.92138409 73.82466463 79.68234676 75.58202996 81.44421577 77.33848572 C83.91902339 79.8059942 86.39064285 82.27665564 88.86157227 84.74804688 C89.58446442 85.46734375 90.30735657 86.18664062 91.05215454 86.92773438 C97.42310703 93.31151419 103.36060348 99.95385963 108.75 107.1875 C109.85601562 108.66283203 109.85601562 108.66283203 110.984375 110.16796875 C114.75736377 115.46916421 114.75736377 115.46916421 116 118 C115.57324219 120.14916992 115.57324219 120.14916992 115 122 C114.38012836 121.27354656 114.38012836 121.27354656 113.74773407 120.5324173 C109.37831276 115.46813455 104.81024267 110.67768716 100.06445312 105.96679688 C99.30414291 105.20794693 98.5438327 104.44909698 97.76048279 103.66725159 C96.12256322 102.03311376 94.48349026 100.40013132 92.84336853 98.76820374 C90.24249653 96.1801881 87.64484239 93.58898042 85.04797363 90.99694824 C79.53478895 85.49514734 74.01768776 79.99728433 68.5 74.5 C62.10214465 68.12580278 55.70593671 61.74997057 49.31394958 55.36988831 C46.76412767 52.82651294 44.21129499 50.28618668 41.6583252 47.74597168 C40.08391666 46.17519825 38.50964981 44.6042828 36.93554688 43.03320312 C36.23300278 42.33582535 35.53045868 41.63844757 34.80662537 40.91993713 C30.85232411 36.96605555 27.1575769 32.9177242 23.64289093 28.56523895 C21.7559983 26.76753115 20.57750072 26.26720957 18 26 C16.00033192 27.24803786 16.00033192 27.24803786 14.1796875 29.18359375 C13.47972656 29.86357422 12.77976563 30.54355469 12.05859375 31.24414062 C11.33800781 31.96794922 10.61742187 32.69175781 9.875 33.4375 C8.43897562 34.85700375 6.99906437 36.27258972 5.5546875 37.68359375 C4.92030762 38.31837646 4.28592773 38.95315918 3.63232422 39.60717773 C2 41 2 41 0 41 C0.33 71.69 0.66 102.38 1 134 C-5.57598612 132.12114682 -9.57771975 130.80417128 -13.19140625 125.12890625 C-19.35226611 112.73898512 -18.38038146 97.7615571 -18.4765625 84.2890625 C-18.48471355 83.31679089 -18.49286461 82.34451927 -18.50126266 81.34278488 C-18.54266524 76.21241911 -18.57142267 71.08215576 -18.59033203 65.95166016 C-18.61259891 60.66868963 -18.68164077 55.38737198 -18.76067543 50.10499001 C-18.81296093 46.02140193 -18.82970941 41.93821389 -18.83689499 37.85432053 C-18.84661306 35.90622956 -18.86980334 33.95815566 -18.90697098 32.01039505 C-19.17912744 16.82555495 -19.17912744 16.82555495 -16.25675964 12.30107117 C-14.24523493 10.52140663 -12.35563127 9.26824692 -10 8 C-7.59023231 5.8398773 -5.18589974 3.67404659 -2.78515625 1.50390625 C-1 0 -1 0 0 0 Z " fill="#DDDDDF" transform="translate(151,166)"/>
<path d="M0 0 C8.64129941 -0.20983241 17.28151041 -0.36908919 25.92473888 -0.46630955 C29.93960115 -0.5130053 33.95270334 -0.57618358 37.96655273 -0.67895508 C41.85061352 -0.77776504 45.73299748 -0.83076448 49.61821938 -0.85389519 C51.08980999 -0.87034666 52.56132327 -0.90246943 54.03218651 -0.95157051 C64.20662817 -1.27727226 70.38056867 0.56669898 78.25386047 6.86073303 C81.71670081 9.55831627 84.82434203 10.7718653 89 12 C89 16.62 89 21.24 89 26 C45.44 26 1.88 26 -43 26 C-43 22.37 -43 18.74 -43 15 C-41.75295288 14.93268677 -41.75295288 14.93268677 -40.48071289 14.86401367 C-37.35455914 14.68931109 -34.22931348 14.5034311 -31.10424805 14.31030273 C-29.10319257 14.18994749 -27.10139457 14.08214737 -25.09960938 13.97460938 C-12.83738489 13.44283221 -12.83738489 13.44283221 -2.5 7.625 C-0.99178561 4.98562482 -0.51516675 2.96220881 0 0 Z " fill="#DDDDDE" transform="translate(284,312)"/>
<path d="M0 0 C1.06367294 0.00222061 2.12734589 0.00444122 3.22325134 0.00672913 C5.02500572 0.00684242 5.02500572 0.00684242 6.86315918 0.00695801 C8.17042465 0.01211929 9.47769012 0.01728058 10.8245697 0.02259827 C12.16835477 0.02446253 13.51214052 0.02588639 14.85592651 0.02688599 C18.39873622 0.0307105 21.94150515 0.0405402 25.48429871 0.05158997 C29.09706572 0.06180552 32.7098393 0.06638392 36.32261658 0.07142639 C43.41573384 0.08216254 50.5088167 0.09975879 57.60191345 0.12025452 C57.60191345 3.75025452 57.60191345 7.38025452 57.60191345 11.12025452 C54.94322205 11.28460999 54.94322205 11.28460999 52.2308197 11.45228577 C49.8753089 11.61182235 47.51984235 11.77201326 45.16441345 11.93275452 C43.4174115 12.03813538 43.4174115 12.03813538 41.63511658 12.14564514 C33.68346834 12.70562037 26.39047788 13.48473144 19.72691345 18.12025452 C11.93754839 29.11700519 13.51180799 45.51780255 13.69047546 58.39120483 C13.76164087 63.55255291 13.78726016 68.71387708 13.81333923 73.87562561 C13.8391536 76.54888303 13.88159734 79.21473304 13.9549408 81.8863678 C14.52168613 105.3818455 14.52168613 105.3818455 9.79917908 111.51283264 C6.72408051 114.6842604 3.42369682 116.92389253 -0.39808655 119.12025452 C-2.06616604 120.11789603 -3.73308698 121.11748125 -5.39808655 122.12025452 C-5.44492536 107.82037529 -5.48000019 93.52050805 -5.50171089 79.2205677 C-5.51213274 72.57999896 -5.52626276 65.93950452 -5.54896545 59.29896545 C-5.57075076 52.88638173 -5.58266721 46.47384759 -5.58784103 40.06122971 C-5.59152657 37.61891271 -5.59872345 35.17659832 -5.60954666 32.73430252 C-5.62413703 29.30446326 -5.62606132 25.87482702 -5.62513733 22.44496155 C-5.63232788 21.44298233 -5.63951843 20.44100311 -5.64692688 19.40866089 C-5.59143577 0.2803883 -5.59143577 0.2803883 0 0 Z " fill="#DBDCDD" transform="translate(138.39808654785156,45.87974548339844)"/>
<path d="M0 0 C1.41112312 0.00022659 1.41112312 0.00022659 2.85075378 0.00045776 C3.86333755 0.01078033 4.87592133 0.02110291 5.91918945 0.03173828 C7.47764336 0.03598312 7.47764336 0.03598312 9.06758118 0.04031372 C12.38932767 0.05151797 15.71080556 0.07662314 19.0324707 0.10205078 C21.28311785 0.11208026 23.53376923 0.12120616 25.78442383 0.12939453 C31.30470978 0.15145813 36.82479468 0.18598979 42.3449707 0.22705078 C42.3449707 3.85705078 42.3449707 7.48705078 42.3449707 11.22705078 C41.54575195 11.50677734 40.7465332 11.78650391 39.9230957 12.07470703 C14.44085581 21.37632277 2.76737832 37.19685048 -8.28271484 60.75634766 C-11.0149723 66.69351409 -13.56185365 72.70189726 -16.0925293 78.72705078 C-20.77493719 89.87435644 -25.93192213 101.14239003 -32.6550293 111.22705078 C-35.95954191 110.12554658 -37.38103722 108.41477066 -39.29956055 105.63720703 C-39.74275635 105.00049072 -40.18595215 104.36377441 -40.64257812 103.70776367 C-41.14374146 102.97481079 -41.14374146 102.97481079 -41.6550293 102.22705078 C-41.35846436 101.73003662 -41.06189941 101.23302246 -40.75634766 100.72094727 C-22.10967627 70.00902104 -22.10967627 70.00902104 -16.6550293 35.22705078 C-17.29756889 32.89980371 -18.04675703 30.66050456 -18.90112305 28.40283203 C-19.14991211 27.68482422 -19.39870117 26.96681641 -19.6550293 26.22705078 C-19.93862305 25.45748047 -20.2222168 24.68791016 -20.5144043 23.89501953 C-20.72504668 19.89866547 -18.66078055 17.38048116 -16.4675293 14.22705078 C-15.86714844 13.32212891 -15.86714844 13.32212891 -15.25463867 12.39892578 C-6.914408 -0.03707457 -6.914408 -0.03707457 0 0 Z " fill="#DCDDDE" transform="translate(663.655029296875,160.77294921875)"/>
<path d="M0 0 C0.84794128 -0.0174678 1.69588257 -0.03493561 2.56951904 -0.05293274 C3.53101868 -0.07852768 4.49251831 -0.10412262 5.4831543 -0.13049316 C7.04715973 -0.14491203 7.04715973 -0.14491203 8.64276123 -0.15962219 C9.7133075 -0.17435074 10.78385376 -0.18907928 11.88684082 -0.20425415 C14.15648229 -0.22824349 16.42622816 -0.24363794 18.69598389 -0.25117493 C22.16312898 -0.27273858 25.62581276 -0.35286095 29.09197998 -0.43501282 C31.29638371 -0.45101158 33.50081632 -0.4634951 35.70526123 -0.47212219 C36.73983459 -0.50400131 37.77440796 -0.53588043 38.84033203 -0.56872559 C45.94158579 -0.5025409 45.94158579 -0.5025409 48.82818604 2.15003967 C50.39178467 4.28251648 50.39178467 4.28251648 51.63146973 6.40280151 C54.13170333 10.24784537 57.39044676 11.87322853 61.77215576 13.00346375 C66.42965634 13.88690945 71.1556961 14.18204492 75.87713623 14.53959656 C77.47525146 14.66914734 77.47525146 14.66914734 79.10565186 14.80131531 C81.71647815 15.01205465 84.32799623 15.21419316 86.93963623 15.41459656 C86.93963623 19.04459656 86.93963623 22.67459656 86.93963623 26.41459656 C43.37963623 26.41459656 -0.18036377 26.41459656 -45.06036377 26.41459656 C-45.06036377 22.78459656 -45.06036377 19.15459656 -45.06036377 15.41459656 C-43.28790283 15.30502625 -41.51544189 15.19545593 -39.68927002 15.08256531 C-37.33375922 14.92302872 -34.97829267 14.76283781 -32.62286377 14.60209656 C-30.87586182 14.4967157 -30.87586182 14.4967157 -29.09356689 14.38920593 C-17.80676988 13.70206029 -17.80676988 13.70206029 -7.93927002 8.69584656 C-7.50485596 8.10803406 -7.07044189 7.52022156 -6.62286377 6.91459656 C-6.17040283 6.32678406 -5.71794189 5.73897156 -5.25177002 5.13334656 C-1.96792436 0.39599544 -1.96792436 0.39599544 0 0 Z " fill="#DCDDDE" transform="translate(107.06036376953125,311.5854034423828)"/>
<path d="M0 0 C9.48433105 5.22875294 14.90510035 13.71530104 18.25 23.75 C20.68009925 35.06100743 18.8759106 45.44369543 13.01171875 55.36328125 C1.5936488 72.91556735 -15.29056862 83.60666526 -33 94 C-33.66588135 94.40226807 -34.3317627 94.80453613 -35.01782227 95.21899414 C-39.75295674 98.03529189 -39.75295674 98.03529189 -42.1875 97.6875 C-44.8653059 95.19437037 -46.22446696 92.19448904 -48 89 C-47.33581055 88.50971313 -47.33581055 88.50971313 -46.65820312 88.00952148 C-21.18189868 69.82575159 -21.18189868 69.82575159 -8.71801758 42.12866211 C-8.49565781 40.58670392 -8.29244611 39.04181489 -8.11206055 37.49438477 C-7.41732901 31.96540286 -5.63411214 27.87304003 -3 23 C0.17633949 15.37915562 0.34609067 8.17799426 0 0 Z " fill="#DCDDDE" transform="translate(593,66)"/>
<path d="M0 0 C4.66286004 4.32727541 8.27562865 9.23409425 12 14.375 C12.60328125 15.2 13.2065625 16.025 13.828125 16.875 C17.24985064 21.56127642 20.63580888 26.27229202 24 31 C23.67 31.66 23.34 32.32 23 33 C20.03 29.04 17.06 25.08 14 21 C9.55396364 22.77841455 6.75494404 24.46276569 3 27.3125 C1.989375 28.07175781 0.97875 28.83101562 -0.0625 29.61328125 C-3.06442636 31.96244704 -3.06442636 31.96244704 -5.75 34.79296875 C-8 37 -8 37 -10 37 C-10.39832031 37.88558594 -10.39832031 37.88558594 -10.8046875 38.7890625 C-12.03090304 41.05716052 -13.33351588 42.53352098 -15.125 44.375 C-26.72688021 57.40592182 -33.0385207 74.43885175 -32.20556641 91.85400391 C-31.55231013 98.67362708 -29.68240985 105.37551122 -28 112 C-39.90605369 100.25620939 -49.58918909 85.01790665 -51 68 C-51.12375 67.14019531 -51.2475 66.28039062 -51.375 65.39453125 C-51.75867245 61.14415987 -51.73518771 58.18704112 -49.44921875 54.49609375 C-47.10010523 51.82059518 -44.6145435 49.41680492 -42 47 C-41.07960938 46.08734375 -40.15921875 45.1746875 -39.2109375 44.234375 C-25.8879444 31.21297643 -10.19759847 20.69367442 5 10 C4.45859375 9.16855469 4.45859375 9.16855469 3.90625 8.3203125 C3.4421875 7.59585938 2.978125 6.87140625 2.5 6.125 C2.0359375 5.40570313 1.571875 4.68640625 1.09375 3.9453125 C0 2 0 2 0 0 Z " fill="#DCDDDE" transform="translate(509,163)"/>
<path d="M0 0 C3.31605649 4.6977467 4.53563793 8.31156467 5 14 C4.33355469 13.7834375 3.66710937 13.566875 2.98046875 13.34375 C-8.7862599 9.78904596 -19.17908383 9.85951497 -30.1875 15.6875 C-39.04386157 22.96939729 -42.93460715 30.53177437 -44.37890625 42.01171875 C-44.81922239 52.6503248 -41.39643624 62.91485471 -36.63671875 72.328125 C-36.42660156 72.87984375 -36.21648438 73.4315625 -36 74 C-36.33 74.66 -36.66 75.32 -37 76 C-47.17783844 63.46208308 -55.61268048 49.26407196 -61 34 C-61.37125 33.1646875 -61.7425 32.329375 -62.125 31.46875 C-63.13364297 28.62293591 -63.49046395 26.99273837 -63 24 C-54.41137667 10.82965044 -39.85353895 1.90763158 -24.625 -1.3125 C-16.79982004 -2.50674985 -7.21193879 -3.83371483 0 0 Z " fill="#DCDDDE" transform="translate(563,54)"/>
<path d="M0 0 C6.00699798 0.3003499 9.70806496 3.05581236 14 7 C17.80184346 11.87415828 19.14539379 15.52725716 19.125 21.625 C19.12886719 22.78902344 19.12886719 22.78902344 19.1328125 23.9765625 C19 26 19 26 18 28 C10.54876403 28.63414774 5.04296158 26.15543112 -1 21.875 C-3.77934272 19.2693662 -3.96632524 18.37715731 -4.3125 14.5 C-4.28327421 9.2003894 -2.17931429 4.74779184 0 0 Z " fill="#DADCDD" transform="translate(286,376)"/>
<path d="M0 0 C4.14587582 -0.0268245 8.29158038 -0.04675315 12.4375 -0.0625 C14.21350586 -0.07506836 14.21350586 -0.07506836 16.02539062 -0.08789062 C17.15009766 -0.09111328 18.27480469 -0.09433594 19.43359375 -0.09765625 C20.47572021 -0.10289307 21.51784668 -0.10812988 22.59155273 -0.11352539 C25 0 25 0 26 1 C26.23363881 2.84891946 26.41303635 4.70488031 26.5625 6.5625 C26.68818359 8.08037109 26.68818359 8.08037109 26.81640625 9.62890625 C26.87699219 10.41136719 26.93757812 11.19382812 27 12 C17.95971078 12.1723784 9.01134307 11.6331684 0 11 C0 7.37 0 3.74 0 0 Z " fill="#DCDDDE" transform="translate(706,46)"/>
<path d="M0 0 C3.64588169 -0.02682987 7.29156846 -0.04675569 10.9375 -0.0625 C12.49887695 -0.07506836 12.49887695 -0.07506836 14.09179688 -0.08789062 C15.57583008 -0.09272461 15.57583008 -0.09272461 17.08984375 -0.09765625 C18.46450806 -0.10551147 18.46450806 -0.10551147 19.86694336 -0.11352539 C22 0 22 0 23 1 C23.33 4.96 23.66 8.92 24 13 C16.08 12.34 8.16 11.68 0 11 C0 7.37 0 3.74 0 0 Z " fill="#DBDCDD" transform="translate(66,46)"/>
<path d="M0 0 C2.26979665 -0.10794277 4.54105196 -0.18556176 6.8125 -0.25 C8.07707031 -0.29640625 9.34164062 -0.3428125 10.64453125 -0.390625 C14 0 14 0 15.88671875 1.828125 C18.03013786 6.00967245 18.08759421 9.35750661 18 14 C11.96079748 13.194773 5.99083802 12.10941445 0 11 C0 7.37 0 3.74 0 0 Z " fill="#DADCDC" transform="translate(613,161)"/>
<path d="M0 0 C4.62 0 9.24 0 14 0 C14.25 7.5 14.25 7.5 12 12 C8.04 11.67 4.08 11.34 0 11 C0 7.37 0 3.74 0 0 Z " fill="#DDDEDF" transform="translate(238,46)"/>
<path d="M0 0 C0.33 0 0.66 0 1 0 C1.01213028 1.38395462 1.01213028 1.38395462 1.02450562 2.79586792 C1.10234763 11.47789225 1.18960648 20.15975932 1.28752708 28.84158134 C1.33753835 33.30532581 1.38386776 37.76904606 1.421875 42.23291016 C1.45866706 46.53832281 1.50501001 50.84353509 1.55806351 55.14877701 C1.57663991 56.79382956 1.59173579 58.43892511 1.60334396 60.0840416 C1.62015128 62.38289799 1.64917179 64.68129224 1.68115234 66.97998047 C1.69447601 68.2901413 1.70779968 69.60030212 1.7215271 70.95016479 C1.68194277 74.10852996 1.68194277 74.10852996 4 76 C2.68 76.99 1.36 77.98 0 79 C0 52.93 0 26.86 0 0 Z " fill="#EAE5E8" transform="translate(133,89)"/>
<path d="M0 0 C2.55493055 2.54572359 5.096945 5.09955338 7.61328125 7.68359375 C12.76186223 12.93648751 17.892702 17.85263717 24 22 C23.34 22.33 22.68 22.66 22 23 C16.83121496 19.14392227 11.9749983 15.20969152 7.5 10.55859375 C6.27462859 9.28535626 4.98866986 8.0706696 3.6875 6.875 C1.75296397 4.72551552 0.90899148 2.72697444 0 0 Z " fill="#E3E4E6" transform="translate(592,281)"/>
<path d="M0 0 C4 1 4 1 6 4 C5.67 5.32 5.34 6.64 5 8 C2.525 4.04 2.525 4.04 0 0 Z " fill="#5D8678" transform="translate(551,222)"/>
</svg>
